<svg xmlns="http://www.w3.org/2000/svg" width="30" height="42" viewBox="0 0 30 42"><g fill="none" fill-rule="evenodd" transform="scale(1.3125)"><path d="M22 11c0 1.42-.226 2.585-.677 3.496l-7.465 15.117c-.218.43-.543.77-.974 1.016-.43.246-.892.37-1.384.37-.492 0-.954-.124-1.384-.37-.43-.248-.75-.587-.954-1.017L1.677 14.496C1.227 13.586 1 12.42 1 11c0-2.76 1.025-5.117 3.076-7.07C6.126 1.977 8.602 1 11.5 1c2.898 0 5.373.977 7.424 2.93C20.974 5.883 22 8.24 22 11z" stroke="#fff" stroke-width=".6" fill="#4182c3" fill-rule="nonzero"/><path transform="translate(11.5 10) scale(1.25) scale(0.006 -0.006) translate(-832, -768)" d="M1408 544v-480q0 -26 -19 -45t-45 -19h-384v384h-256v-384h-384q-26 0 -45 19t-19 45v480q0 1 0.5 3t0.5 3l575 474l575 -474q1 -2 1 -6zM1631 613l-62 -74q-8 -9 -21 -11h-3q-13 0 -21 7l-692 577l-692 -577q-12 -8 -24 -7q-13 2 -21 11l-62 74q-8 10 -7 23.5t11 21.5 l719 599q32 26 76 26t76 -26l244 -204v195q0 14 9 23t23 9h192q14 0 23 -9t9 -23v-408l219 -182q10 -8 11 -21.5t-7 -23.5z" fill="#fff"/></g></svg>