<svg xmlns="http://www.w3.org/2000/svg" width="30" height="42" viewBox="0 0 30 42"><g fill="none" fill-rule="evenodd" transform="scale(1.3125)"><path d="M22 11c0 1.42-.226 2.585-.677 3.496l-7.465 15.117c-.218.43-.543.77-.974 1.016-.43.246-.892.37-1.384.37-.492 0-.954-.124-1.384-.37-.43-.248-.75-.587-.954-1.017L1.677 14.496C1.227 13.586 1 12.42 1 11c0-2.76 1.025-5.117 3.076-7.07C6.126 1.977 8.602 1 11.5 1c2.898 0 5.373.977 7.424 2.93C20.974 5.883 22 8.24 22 11z" stroke="#fff" stroke-width=".6" fill="#4182c3" fill-rule="nonzero"/><path transform="translate(11.5 10)  scale(0.006 -0.006) translate(-768, -768)" d="M1536 1312v-1120q0 -50 -34 -89t-86 -60.5t-103.5 -32t-96.5 -10.5t-96.5 10.5t-103.5 32t-86 60.5t-34 89t34 89t86 60.5t103.5 32t96.5 10.5q105 0 192 -39v537l-768 -237v-709q0 -50 -34 -89t-86 -60.5t-103.5 -32t-96.5 -10.5t-96.5 10.5t-103.5 32t-86 60.5t-34 89 t34 89t86 60.5t103.5 32t96.5 10.5q105 0 192 -39v967q0 31 19 56.5t49 35.5l832 256q12 4 28 4q40 0 68 -28t28 -68z" fill="#fff"/></g></svg>