<svg xmlns="http://www.w3.org/2000/svg" width="30" height="42" viewBox="0 0 30 42"><g fill="none" fill-rule="evenodd" transform="scale(1.3125)"><path d="M22 11c0 1.42-.226 2.585-.677 3.496l-7.465 15.117c-.218.43-.543.77-.974 1.016-.43.246-.892.37-1.384.37-.492 0-.954-.124-1.384-.37-.43-.248-.75-.587-.954-1.017L1.677 14.496C1.227 13.586 1 12.42 1 11c0-2.76 1.025-5.117 3.076-7.07C6.126 1.977 8.602 1 11.5 1c2.898 0 5.373.977 7.424 2.93C20.974 5.883 22 8.24 22 11z" stroke="#fff" stroke-width=".6" fill="#ff0000" fill-rule="nonzero"/><path transform=" translate(11.5 14.5) scale(0.006 -0.006) translate(-832, 0)" d="M1664 889q0 -22 -26 -48l-363 -354l86 -500q1 -7 1 -20q0 -21 -10.5 -35.5t-30.5 -14.5q-19 0 -40 12l-449 236l-449 -236q-22 -12 -40 -12q-21 0 -31.5 14.5t-10.5 35.5q0 6 2 20l86 500l-364 354q-25 27 -25 48q0 37 56 46l502 73l225 455q19 41 49 41t49 -41l225 -455 l502 -73q56 -9 56 -46z" fill="#ffff00"/></g></svg>