<svg xmlns="http://www.w3.org/2000/svg" width="30" height="42" viewBox="0 0 30 42"><g fill="none" fill-rule="evenodd" transform="scale(1.3125)"><path d="M22 11c0 1.42-.226 2.585-.677 3.496l-7.465 15.117c-.218.43-.543.77-.974 1.016-.43.246-.892.37-1.384.37-.492 0-.954-.124-1.384-.37-.43-.248-.75-.587-.954-1.017L1.677 14.496C1.227 13.586 1 12.42 1 11c0-2.76 1.025-5.117 3.076-7.07C6.126 1.977 8.602 1 11.5 1c2.898 0 5.373.977 7.424 2.93C20.974 5.883 22 8.24 22 11z" stroke="#444" stroke-width=".6" fill="#fff" fill-rule="nonzero"/><path transform="translate(11.5 10) rotate(22.5) scale(0.006 -0.006) translate(-832, -768)" d="M1611 565q0 -51 -37 -90l-75 -75q-38 -38 -91 -38q-54 0 -90 38l-294 293v-704q0 -52 -37.5 -84.5t-90.5 -32.5h-128q-53 0 -90.5 32.5t-37.5 84.5v704l-294 -293q-36 -38 -90 -38t-90 38l-75 75q-38 38 -38 90q0 53 38 91l651 651q35 37 90 37q54 0 91 -37l651 -651 q37 -39 37 -91z" fill="#444"/></g></svg>